<svg width="500" height="500" viewBox="0 0 500 500" fill="none" xmlns="http://www.w3.org/2000/svg">
<rect width="50" height="50" fill="black"/>
<rect x="50" width="50" height="50" fill="#B900CA"/>
<rect x="100" width="50" height="50" fill="black"/>
<rect x="150" width="50" height="50" fill="#B900CA"/>
<rect x="200" width="50" height="50" fill="black"/>
<rect x="250" width="50" height="50" fill="#B900CA"/>
<rect x="300" width="50" height="50" fill="black"/>
<rect x="350" width="50" height="50" fill="#B900CA"/>
<rect x="400" width="50" height="50" fill="black"/>
<rect x="450" width="50" height="50" fill="#B900CA"/>
<rect y="50" width="50" height="50" fill="#B900CA"/>
<rect x="50" y="50" width="50" height="50" fill="black"/>
<rect x="100" y="50" width="50" height="50" fill="#B900CA"/>
<rect x="150" y="50" width="50" height="50" fill="black"/>
<rect x="200" y="50" width="50" height="50" fill="#B900CA"/>
<rect x="250" y="50" width="50" height="50" fill="black"/>
<rect x="300" y="50" width="50" height="50" fill="#B900CA"/>
<rect x="350" y="50" width="50" height="50" fill="black"/>
<rect x="400" y="50" width="50" height="50" fill="#B900CA"/>
<rect x="450" y="50" width="50" height="50" fill="black"/>
<rect y="100" width="50" height="50" fill="black"/>
<rect x="50" y="100" width="50" height="50" fill="#B900CA"/>
<rect x="100" y="100" width="50" height="50" fill="black"/>
<rect x="150" y="100" width="50" height="50" fill="#B900CA"/>
<rect x="200" y="100" width="50" height="50" fill="black"/>
<rect x="250" y="100" width="50" height="50" fill="#B900CA"/>
<rect x="300" y="100" width="50" height="50" fill="black"/>
<rect x="350" y="100" width="50" height="50" fill="#B900CA"/>
<rect x="400" y="100" width="50" height="50" fill="black"/>
<rect x="450" y="100" width="50" height="50" fill="#B900CA"/>
<rect y="150" width="50" height="50" fill="#B900CA"/>
<rect x="50" y="150" width="50" height="50" fill="black"/>
<rect x="100" y="150" width="50" height="50" fill="#B900CA"/>
<rect x="150" y="150" width="50" height="50" fill="black"/>
<rect x="200" y="150" width="50" height="50" fill="#B900CA"/>
<rect x="250" y="150" width="50" height="50" fill="black"/>
<rect x="300" y="150" width="50" height="50" fill="#B900CA"/>
<rect x="350" y="150" width="50" height="50" fill="black"/>
<rect x="400" y="150" width="50" height="50" fill="#B900CA"/>
<rect x="450" y="150" width="50" height="50" fill="black"/>
<rect y="200" width="50" height="50" fill="black"/>
<rect x="50" y="200" width="50" height="50" fill="#B900CA"/>
<rect x="100" y="200" width="50" height="50" fill="black"/>
<rect x="150" y="200" width="50" height="50" fill="#B900CA"/>
<rect x="200" y="200" width="50" height="50" fill="black"/>
<rect x="250" y="200" width="50" height="50" fill="#B900CA"/>
<rect x="300" y="200" width="50" height="50" fill="black"/>
<rect x="350" y="200" width="50" height="50" fill="#B900CA"/>
<rect x="400" y="200" width="50" height="50" fill="black"/>
<rect x="450" y="200" width="50" height="50" fill="#B900CA"/>
<rect y="250" width="50" height="50" fill="#B900CA"/>
<rect x="50" y="250" width="50" height="50" fill="black"/>
<rect x="100" y="250" width="50" height="50" fill="#B900CA"/>
<rect x="150" y="250" width="50" height="50" fill="black"/>
<rect x="200" y="250" width="50" height="50" fill="#B900CA"/>
<rect x="250" y="250" width="50" height="50" fill="black"/>
<rect x="300" y="250" width="50" height="50" fill="#B900CA"/>
<rect x="350" y="250" width="50" height="50" fill="black"/>
<rect x="400" y="250" width="50" height="50" fill="#B900CA"/>
<rect x="450" y="250" width="50" height="50" fill="black"/>
<rect y="300" width="50" height="50" fill="black"/>
<rect x="50" y="300" width="50" height="50" fill="#B900CA"/>
<rect x="100" y="300" width="50" height="50" fill="black"/>
<rect x="150" y="300" width="50" height="50" fill="#B900CA"/>
<rect x="200" y="300" width="50" height="50" fill="black"/>
<rect x="250" y="300" width="50" height="50" fill="#B900CA"/>
<rect x="300" y="300" width="50" height="50" fill="black"/>
<rect x="350" y="300" width="50" height="50" fill="#B900CA"/>
<rect x="400" y="300" width="50" height="50" fill="black"/>
<rect x="450" y="300" width="50" height="50" fill="#B900CA"/>
<rect y="350" width="50" height="50" fill="#B900CA"/>
<rect x="50" y="350" width="50" height="50" fill="black"/>
<rect x="100" y="350" width="50" height="50" fill="#B900CA"/>
<rect x="150" y="350" width="50" height="50" fill="black"/>
<rect x="200" y="350" width="50" height="50" fill="#B900CA"/>
<rect x="250" y="350" width="50" height="50" fill="black"/>
<rect x="300" y="350" width="50" height="50" fill="#B900CA"/>
<rect x="350" y="350" width="50" height="50" fill="black"/>
<rect x="400" y="350" width="50" height="50" fill="#B900CA"/>
<rect x="450" y="350" width="50" height="50" fill="black"/>
<rect y="400" width="50" height="50" fill="black"/>
<rect x="50" y="400" width="50" height="50" fill="#B900CA"/>
<rect x="100" y="400" width="50" height="50" fill="black"/>
<rect x="150" y="400" width="50" height="50" fill="#B900CA"/>
<rect x="200" y="400" width="50" height="50" fill="black"/>
<rect x="250" y="400" width="50" height="50" fill="#B900CA"/>
<rect x="300" y="400" width="50" height="50" fill="black"/>
<rect x="350" y="400" width="50" height="50" fill="#B900CA"/>
<rect x="400" y="400" width="50" height="50" fill="black"/>
<rect x="450" y="400" width="50" height="50" fill="#B900CA"/>
<rect y="450" width="50" height="50" fill="#B900CA"/>
<rect x="50" y="450" width="50" height="50" fill="black"/>
<rect x="100" y="450" width="50" height="50" fill="#B900CA"/>
<rect x="150" y="450" width="50" height="50" fill="black"/>
<rect x="200" y="450" width="50" height="50" fill="#B900CA"/>
<rect x="250" y="450" width="50" height="50" fill="black"/>
<rect x="300" y="450" width="50" height="50" fill="#B900CA"/>
<rect x="350" y="450" width="50" height="50" fill="black"/>
<rect x="400" y="450" width="50" height="50" fill="#B900CA"/>
<rect x="450" y="450" width="50" height="50" fill="black"/>
</svg>
