<svg width="555" height="555" viewBox="0 0 555 555" fill="none" xmlns="http://www.w3.org/2000/svg">
<rect width="555" height="555" fill="#393E46"/>
<rect width="555" height="555" fill="#393E46"/>
<rect x="51" y="242" width="105" height="15" fill="#EEEEEE"/>
<rect x="51" y="262" width="454" height="14" fill="#EEEEEE"/>
<rect x="51" y="281" width="454" height="14" fill="#EEEEEE"/>
<rect x="400" y="300" width="105" height="15" fill="#EEEEEE"/>
<path d="M176.627 227.014V257H169.137V227.014H157.584V221.225H188.205V227.014H176.627ZM191.455 224.576V219.32H198.59V224.576H191.455ZM191.455 257V229.527H198.59V257H191.455ZM222.102 257V241.588C222.102 236.764 220.714 234.352 217.938 234.352C216.499 234.352 215.322 235.088 214.408 236.561C213.511 238.033 213.062 239.938 213.062 242.273V257H205.928V235.672C205.928 234.199 205.902 232.997 205.852 232.066C205.818 231.118 205.775 230.272 205.725 229.527H212.529C212.58 229.849 212.648 230.712 212.732 232.117C212.817 233.505 212.859 234.462 212.859 234.986H212.961C213.841 232.887 214.933 231.364 216.236 230.416C217.557 229.468 219.131 228.994 220.959 228.994C225.157 228.994 227.704 230.992 228.602 234.986H228.754C229.685 232.854 230.802 231.322 232.105 230.391C233.409 229.46 235.068 228.994 237.082 228.994C239.757 228.994 241.796 229.908 243.201 231.736C244.606 233.548 245.309 236.154 245.309 239.557V257H238.225V241.588C238.225 236.764 236.837 234.352 234.061 234.352C232.673 234.352 231.53 235.029 230.633 236.383C229.753 237.72 229.27 239.574 229.186 241.943V257H222.102ZM263.438 257.508C259.307 257.508 256.133 256.289 253.916 253.852C251.699 251.397 250.59 247.826 250.59 243.137C250.59 238.6 251.715 235.113 253.967 232.676C256.218 230.238 259.409 229.02 263.539 229.02C267.483 229.02 270.496 230.331 272.578 232.955C274.66 235.562 275.701 239.387 275.701 244.432V244.635H258.08C258.08 247.309 258.571 249.332 259.553 250.703C260.551 252.057 261.965 252.734 263.793 252.734C266.315 252.734 267.906 251.643 268.566 249.459L275.295 250.043C273.348 255.02 269.396 257.508 263.438 257.508ZM263.438 233.514C261.762 233.514 260.467 234.098 259.553 235.266C258.656 236.434 258.182 238.067 258.131 240.166H268.795C268.66 237.949 268.126 236.29 267.195 235.189C266.264 234.072 265.012 233.514 263.438 233.514ZM307.236 243.238C307.236 247.69 306.001 251.186 303.529 253.725C301.058 256.247 297.639 257.508 293.271 257.508C288.989 257.508 285.629 256.238 283.191 253.699C280.754 251.16 279.535 247.673 279.535 243.238C279.535 238.82 280.754 235.35 283.191 232.828C285.629 230.289 289.04 229.02 293.424 229.02C297.91 229.02 301.329 230.247 303.682 232.701C306.051 235.139 307.236 238.651 307.236 243.238ZM299.771 243.238C299.771 239.971 299.238 237.602 298.172 236.129C297.105 234.656 295.557 233.92 293.525 233.92C289.192 233.92 287.025 237.026 287.025 243.238C287.025 246.302 287.55 248.638 288.6 250.246C289.666 251.837 291.198 252.633 293.195 252.633C297.579 252.633 299.771 249.501 299.771 243.238ZM321.303 234.352V257H314.193V234.352H310.182V229.527H314.193V226.658C314.193 224.17 314.854 222.325 316.174 221.123C317.494 219.921 319.5 219.32 322.191 219.32C323.529 219.32 325.035 219.456 326.711 219.727V224.322C326.017 224.17 325.323 224.094 324.629 224.094C323.41 224.094 322.547 224.339 322.039 224.83C321.548 225.304 321.303 226.15 321.303 227.369V229.527H326.711V234.352H321.303ZM339.914 257.508C336.207 257.508 333.355 256.704 331.357 255.096C329.377 253.488 328.057 250.889 327.396 247.301L334.836 246.209C335.141 248.054 335.708 249.425 336.537 250.322C337.367 251.202 338.509 251.643 339.965 251.643C341.454 251.643 342.58 251.143 343.342 250.145C344.12 249.146 344.51 247.715 344.51 245.854V227.09H337.375V221.225H351.975V245.676C351.975 249.4 350.917 252.303 348.801 254.385C346.685 256.467 343.723 257.508 339.914 257.508ZM365.914 229.527V244.939C365.914 249.764 367.539 252.176 370.789 252.176C372.516 252.176 373.904 251.439 374.953 249.967C376.02 248.477 376.553 246.573 376.553 244.254V229.527H383.688V250.855C383.688 253.191 383.755 255.24 383.891 257H377.086C376.883 254.562 376.781 252.743 376.781 251.541H376.654C375.706 253.623 374.496 255.138 373.023 256.086C371.568 257.034 369.833 257.508 367.818 257.508C364.907 257.508 362.673 256.619 361.115 254.842C359.558 253.048 358.779 250.424 358.779 246.971V229.527H365.914ZM414.131 248.977C414.131 251.634 413.039 253.725 410.855 255.248C408.689 256.755 405.684 257.508 401.842 257.508C398.067 257.508 395.173 256.915 393.158 255.73C391.161 254.529 389.832 252.667 389.172 250.145L395.443 249.205C395.799 250.508 396.408 251.431 397.271 251.973C398.152 252.514 399.675 252.785 401.842 252.785C403.839 252.785 405.295 252.531 406.209 252.023C407.123 251.516 407.58 250.72 407.58 249.637C407.58 248.757 407.208 248.062 406.463 247.555C405.735 247.03 404.491 246.59 402.73 246.234C398.702 245.439 395.985 244.702 394.58 244.025C393.175 243.331 392.1 242.443 391.355 241.359C390.628 240.259 390.264 238.913 390.264 237.322C390.264 234.699 391.271 232.659 393.285 231.203C395.316 229.73 398.186 228.994 401.893 228.994C405.16 228.994 407.783 229.629 409.764 230.898C411.761 232.168 413.005 234.005 413.496 236.408L407.174 237.068C406.971 235.951 406.471 235.122 405.676 234.58C404.88 234.021 403.619 233.742 401.893 233.742C400.2 233.742 398.93 233.962 398.084 234.402C397.238 234.826 396.814 235.545 396.814 236.561C396.814 237.356 397.136 237.991 397.779 238.465C398.439 238.922 399.54 239.303 401.08 239.607C403.23 240.048 405.134 240.505 406.793 240.979C408.469 241.436 409.806 241.986 410.805 242.629C411.82 243.272 412.624 244.102 413.217 245.117C413.826 246.116 414.131 247.402 414.131 248.977ZM426.953 257.457C424.854 257.457 423.238 256.89 422.104 255.756C420.969 254.605 420.402 252.87 420.402 250.551V234.352H416.924V229.527H420.758L422.992 223.078H427.461V229.527H432.666V234.352H427.461V248.621C427.461 249.958 427.715 250.949 428.223 251.592C428.73 252.218 429.518 252.531 430.584 252.531C431.143 252.531 431.938 252.413 432.971 252.176V256.594C431.21 257.169 429.204 257.457 426.953 257.457ZM437.236 224.576V219.32H444.371V224.576H437.236ZM437.236 257V229.527H444.371V257H437.236ZM463.16 257.508C458.996 257.508 455.78 256.272 453.512 253.801C451.243 251.312 450.109 247.851 450.109 243.416C450.109 238.88 451.252 235.35 453.537 232.828C455.822 230.289 459.064 229.02 463.262 229.02C466.495 229.02 469.169 229.832 471.285 231.457C473.401 233.082 474.73 235.325 475.271 238.186L468.086 238.541C467.883 237.136 467.375 236.019 466.562 235.189C465.75 234.343 464.599 233.92 463.109 233.92C459.436 233.92 457.6 236.992 457.6 243.137C457.6 249.467 459.47 252.633 463.211 252.633C464.565 252.633 465.699 252.21 466.613 251.363C467.527 250.5 468.094 249.222 468.314 247.529L475.475 247.859C475.221 249.738 474.544 251.414 473.443 252.887C472.36 254.359 470.93 255.502 469.152 256.314C467.375 257.11 465.378 257.508 463.16 257.508ZM491.902 257.508C487.772 257.508 484.598 256.289 482.381 253.852C480.163 251.397 479.055 247.826 479.055 243.137C479.055 238.6 480.18 235.113 482.432 232.676C484.683 230.238 487.874 229.02 492.004 229.02C495.948 229.02 498.961 230.331 501.043 232.955C503.125 235.562 504.166 239.387 504.166 244.432V244.635H486.545C486.545 247.309 487.036 249.332 488.018 250.703C489.016 252.057 490.43 252.734 492.258 252.734C494.78 252.734 496.371 251.643 497.031 249.459L503.76 250.043C501.813 255.02 497.861 257.508 491.902 257.508ZM491.902 233.514C490.227 233.514 488.932 234.098 488.018 235.266C487.12 236.434 486.646 238.067 486.596 240.166H497.26C497.124 237.949 496.591 236.29 495.66 235.189C494.729 234.072 493.477 233.514 491.902 233.514Z" fill="white"/>
</svg>
